<svg width="92" height="38" viewBox="0 0 92 38" fill="none" xmlns="http://www.w3.org/2000/svg">
<path d="M24.1818 13.375H31.6818C30.7273 6.47159 24.642 1.61364 16.75 1.61364C7.52841 1.61364 0.420455 8.26136 0.420455 19.5795C0.420455 30.625 7.06818 37.4773 16.9034 37.4773C25.7159 37.4773 32.0057 31.9034 32.0057 22.7159V18.3182H17.3977V23.875H24.8977C24.7955 28.2045 21.8466 30.9489 16.9375 30.9489C11.3977 30.9489 7.90341 26.8068 7.90341 19.5114C7.90341 12.25 11.5341 8.14205 16.8693 8.14205C20.6705 8.14205 23.2443 10.1023 24.1818 13.375ZM36.4134 37H43.6747V22.1875C43.6747 18.9659 46.027 16.75 49.2315 16.75C50.2372 16.75 51.6179 16.9205 52.2997 17.142V10.6989C51.652 10.5455 50.7486 10.4432 50.0156 10.4432C47.0838 10.4432 44.6804 12.1477 43.7259 15.3864H43.4531V10.8182H36.4134V37ZM55.054 37H62.3153V10.8182H55.054V37ZM58.7017 7.44318C60.8665 7.44318 62.6392 5.78977 62.6392 3.76136C62.6392 1.75 60.8665 0.0965891 58.7017 0.0965891C56.554 0.0965891 54.7812 1.75 54.7812 3.76136C54.7812 5.78977 56.554 7.44318 58.7017 7.44318ZM76.7798 37.4261C81.0071 37.4261 83.206 34.9886 84.2116 32.8068H84.5185V37H91.6776V2.09091H84.4332V15.2159H84.2116C83.2401 13.0852 81.1435 10.4773 76.7628 10.4773C71.0185 10.4773 66.1605 14.9432 66.1605 23.9432C66.1605 32.7045 70.8139 37.4261 76.7798 37.4261ZM79.081 31.6477C75.5185 31.6477 73.5753 28.4773 73.5753 23.9091C73.5753 19.375 75.4844 16.2557 79.081 16.2557C82.6094 16.2557 84.5866 19.2386 84.5866 23.9091C84.5866 28.5795 82.5753 31.6477 79.081 31.6477Z" fill="#2D3436"/>
</svg>
