<svg width="109" height="18" viewBox="0 0 109 18" fill="none" xmlns="http://www.w3.org/2000/svg">
<path d="M0.137784 14H8.51776V11.718H2.90554V0.909091H0.137784V14ZM10.4995 14H13.2225V4.18182H10.4995V14ZM11.8674 2.91619C12.6792 2.91619 13.344 2.29616 13.344 1.53551C13.344 0.78125 12.6792 0.161221 11.8674 0.161221C11.062 0.161221 10.3973 0.78125 10.3973 1.53551C10.3973 2.29616 11.062 2.91619 11.8674 2.91619ZM15.6038 14H18.3268V10.8807L19.0619 10.0433L21.7402 14H24.9298L21.101 8.43253L24.7445 4.18182H21.6187L18.4739 7.90838H18.3268V0.909091H15.6038V14ZM30.3505 14.1918C32.7795 14.1918 34.4159 13.0092 34.7994 11.1875L32.2809 11.0213C32.0061 11.7692 31.3029 12.1591 30.3953 12.1591C29.0338 12.1591 28.1708 11.2578 28.1708 9.79403V9.78764H34.8569V9.03977C34.8569 5.70312 32.837 4.05398 30.2419 4.05398C27.3527 4.05398 25.4798 6.10582 25.4798 9.13565C25.4798 12.2486 27.3271 14.1918 30.3505 14.1918ZM28.1708 8.10014C28.2284 6.98153 29.0785 6.08665 30.2866 6.08665C31.4691 6.08665 32.2873 6.9304 32.2937 8.10014H28.1708ZM43.9996 14.1854C45.4506 14.1854 46.3903 13.5526 46.8697 12.6385H46.9464V14H49.5288V7.37784C49.5288 5.03835 47.5472 4.05398 45.3612 4.05398C43.0089 4.05398 41.462 5.17898 41.0849 6.96875L43.6033 7.1733C43.7887 6.52131 44.3704 6.0419 45.3484 6.0419C46.2752 6.0419 46.8058 6.50852 46.8058 7.31392V7.35227C46.8058 7.98509 46.1346 8.06818 44.4279 8.23438C42.4847 8.41335 40.7397 9.06534 40.7397 11.2578C40.7397 13.201 42.1268 14.1854 43.9996 14.1854ZM44.7795 12.3061C43.9421 12.3061 43.3413 11.9162 43.3413 11.1683C43.3413 10.4013 43.9741 10.0241 44.9329 9.88991C45.5273 9.80682 46.4989 9.66619 46.8249 9.44886V10.4908C46.8249 11.5199 45.9748 12.3061 44.7795 12.3061ZM56.2074 17.6818H58.9304V12.4276H59.0135C59.3906 13.2457 60.2152 14.1598 61.8004 14.1598C64.0376 14.1598 65.7826 12.3892 65.7826 9.10369C65.7826 5.72869 63.9609 4.05398 61.8068 4.05398C60.164 4.05398 59.3778 5.03196 59.0135 5.83097H58.892V4.18182H56.2074V17.6818ZM58.8728 9.09091C58.8728 7.33949 59.6143 6.22088 60.9375 6.22088C62.2862 6.22088 63.0021 7.39062 63.0021 9.09091C63.0021 10.804 62.2734 11.9929 60.9375 11.9929C59.6271 11.9929 58.8728 10.8423 58.8728 9.09091ZM74.0941 9.8196C74.1005 11.1364 73.1993 11.8267 72.2213 11.8267C71.1922 11.8267 70.5274 11.1044 70.521 9.94744V4.18182H67.798V10.4332C67.8044 12.728 69.1467 14.1278 71.1218 14.1278C72.5984 14.1278 73.6595 13.3672 74.1005 12.2166H74.2028V14H76.8172V4.18182H74.0941V9.8196ZM87.3643 6.98153C87.1214 5.17259 85.664 4.05398 83.1839 4.05398C80.6718 4.05398 79.0163 5.21733 79.0227 7.10938C79.0163 8.57955 79.9431 9.53196 81.8607 9.91548L83.561 10.2543C84.4175 10.4268 84.8075 10.7401 84.8202 11.2322C84.8075 11.8139 84.1746 12.2294 83.2222 12.2294C82.2506 12.2294 81.605 11.8139 81.4389 11.0149L78.7606 11.1555C79.0163 13.0348 80.6143 14.1918 83.2158 14.1918C85.7599 14.1918 87.5816 12.8942 87.588 10.9574C87.5816 9.53835 86.6548 8.68821 84.7499 8.2983L82.9729 7.94034C82.0589 7.74219 81.7201 7.42898 81.7265 6.95597C81.7201 6.3679 82.3849 5.98438 83.2286 5.98438C84.1746 5.98438 84.7371 6.50213 84.8714 7.13494L87.3643 6.98153ZM97.6717 6.98153C97.4288 5.17259 95.9714 4.05398 93.4913 4.05398C90.9792 4.05398 89.3237 5.21733 89.3301 7.10938C89.3237 8.57955 90.2505 9.53196 92.1681 9.91548L93.8684 10.2543C94.725 10.4268 95.1149 10.7401 95.1277 11.2322C95.1149 11.8139 94.4821 12.2294 93.5297 12.2294C92.5581 12.2294 91.9125 11.8139 91.7463 11.0149L89.068 11.1555C89.3237 13.0348 90.9217 14.1918 93.5233 14.1918C96.0673 14.1918 97.889 12.8942 97.8954 10.9574C97.889 9.53835 96.9622 8.68821 95.0574 8.2983L93.2804 7.94034C92.3663 7.74219 92.0275 7.42898 92.0339 6.95597C92.0275 6.3679 92.6923 5.98438 93.536 5.98438C94.4821 5.98438 95.0446 6.50213 95.1788 7.13494L97.6717 6.98153ZM101.491 17.6626C103.517 17.6626 104.598 16.6335 105.147 15.0611L108.963 4.1946L106.081 4.18182L104.029 11.392H103.927L101.894 4.18182H99.0303L102.552 14.2812L102.392 14.6967C102.009 15.5852 101.351 15.6491 100.392 15.3487L99.7781 17.3878C100.168 17.5476 100.801 17.6626 101.491 17.6626Z" fill="#6C5CE7"/>
</svg>
